<svg width="48" height="47" viewBox="0 0 48 47" fill="none" xmlns="http://www.w3.org/2000/svg">
<g clip-path="url(#clip0)" filter="url(#filter0_d)">
<path d="M18.7575 20.344C19.4466 20.344 20.0052 19.7854 20.0052 19.0963C20.0052 18.4072 19.4466 17.8486 18.7575 17.8486C18.0685 17.8486 17.5099 18.4072 17.5099 19.0963C17.5099 19.7854 18.0685 20.344 18.7575 20.344Z" fill="black"/>
<path d="M29.2427 20.344C29.9318 20.344 30.4904 19.7854 30.4904 19.0963C30.4904 18.4072 29.9318 17.8486 29.2427 17.8486C28.5537 17.8486 27.9951 18.4072 27.9951 19.0963C27.9951 19.7854 28.5537 20.344 29.2427 20.344Z" fill="black"/>
<path d="M27.237 29.6138C26.4113 29.6138 25.7671 29.3868 25.3222 28.9391C24.8289 28.4427 24.6667 27.7694 24.6133 27.3775C25.6905 27.1025 26.4812 26.1262 26.8724 25.5376C26.9056 25.4877 26.9414 25.4358 26.9784 25.3823C27.237 25.009 27.5909 24.4976 27.5647 23.9083C27.5381 23.3133 27.1009 22.9415 26.2651 22.8032C25.5581 22.6864 24.876 22.625 24.2346 22.6212H23.762C23.1241 22.625 22.442 22.6863 21.735 22.8032C20.8991 22.9415 20.4618 23.3133 20.4354 23.9084C20.4091 24.4976 20.7631 25.0089 21.0216 25.3823C21.0587 25.4359 21.0947 25.4878 21.1277 25.5376C21.6966 26.3936 22.4633 27.0265 23.2865 27.3199C23.3209 27.3321 23.3556 27.3415 23.3902 27.3521C23.3405 27.7373 23.1829 28.4263 22.6844 28.9326C22.2393 29.3846 21.5928 29.6139 20.763 29.6139C20.4388 29.6139 20.1761 29.8766 20.1761 30.2008C20.1761 30.525 20.4387 30.7877 20.763 30.7877C21.9187 30.7877 22.8466 30.4406 23.5206 29.7562C23.7133 29.5605 23.8706 29.3502 24 29.1365C24.1294 29.3502 24.2867 29.5606 24.4794 29.7562C25.1534 30.4406 26.0813 30.7877 27.237 30.7877C27.5613 30.7877 27.8239 30.525 27.8239 30.2008C27.8239 29.8765 27.5613 29.6138 27.237 29.6138ZM24.1809 26.2686C24.1808 26.2686 24.1807 26.2686 24.1807 26.2687C24.01 26.2912 23.8463 26.2735 23.6803 26.2144C23.0942 26.0055 22.5349 25.5344 22.1052 24.8879C22.0682 24.8322 22.0281 24.7743 21.9866 24.7143C21.8429 24.5068 21.6524 24.2316 21.6145 24.0363C21.6658 24.016 21.7589 23.989 21.9265 23.9612C22.5728 23.8543 23.1927 23.7984 23.7655 23.795H24.2311C24.8073 23.7984 25.4273 23.8543 26.0736 23.9612C26.2413 23.989 26.3343 24.0159 26.3856 24.0363C26.3475 24.2317 26.1571 24.5067 26.0134 24.7143C25.972 24.7743 25.9318 24.8322 25.8949 24.8879C25.3683 25.6802 24.7276 26.1964 24.1809 26.2686Z" fill="black"/>
<path d="M43.6087 30.0451L40.2941 28.8736C41.2095 26.9489 41.6909 24.861 41.6909 22.706C41.6909 22.0521 41.6447 21.4002 41.5545 20.7541L43.6085 20.0281C43.9141 19.9201 44.0742 19.5848 43.9663 19.2792C43.8583 18.9737 43.5229 18.8134 43.2174 18.9215L41.3397 19.5852C40.9875 18.0241 40.3746 16.5139 39.5151 15.1181C39.3275 14.8135 39.2351 14.4669 39.248 14.1146L39.3823 10.2999C39.3937 9.97598 39.1403 9.70418 38.8165 9.69277C38.8094 9.69246 38.8025 9.69238 38.7955 9.69238C38.4809 9.69238 38.2205 9.94176 38.2094 10.2586L38.0751 14.0724C38.0538 14.6564 38.2062 15.2308 38.5158 15.7335C39.3319 17.0589 39.908 18.4949 40.2263 19.9785L32.0377 22.8727C31.7321 22.9807 31.572 23.316 31.68 23.6216C31.7651 23.8625 31.9914 24.0131 32.2332 24.0131C32.2981 24.0131 32.3642 24.0022 32.4288 23.9793L40.4215 21.1543C40.4837 21.6688 40.517 22.1867 40.517 22.7058C40.517 24.7545 40.0368 26.7057 39.1721 28.477L32.4288 26.0935C32.1232 25.9855 31.7879 26.1457 31.68 26.4513C31.572 26.7568 31.7321 27.0921 32.0377 27.2001L38.6051 29.5214C35.8315 34.1515 30.3258 37.3134 23.9999 37.3134C20.4029 37.3134 16.9837 36.3083 14.1121 34.4068C13.8418 34.2278 13.4776 34.3018 13.2988 34.572C13.1198 34.8422 13.1938 35.2064 13.464 35.3853C16.5285 37.4146 20.1718 38.4872 23.9999 38.4872C28.7124 38.4872 33.1461 36.8541 36.4841 33.8887C37.8143 32.707 38.9066 31.3697 39.742 29.9232L43.2175 31.1515C43.2821 31.1743 43.3482 31.1853 43.4131 31.1853C43.6548 31.1853 43.8812 31.0347 43.9663 30.7938C44.0744 30.4884 43.9142 30.1531 43.6087 30.0451Z" fill="black"/>
<path d="M39.1511 1.69685C38.8129 1.47747 38.3952 1.45255 38.0335 1.63013L27.2652 6.91586C26.9898 7.05109 26.6765 7.10265 26.3604 7.06461C24.8028 6.87859 23.197 6.87859 21.6396 7.06461C21.3232 7.10218 21.0101 7.05093 20.7347 6.91586L9.96634 1.63005C9.60478 1.45247 9.18673 1.4774 8.84876 1.69677C8.51079 1.91607 8.31782 2.28748 8.33258 2.69014L8.75165 14.1153C8.76454 14.4666 8.67212 14.8134 8.48454 15.118C7.62516 16.5137 7.01226 18.0237 6.66008 19.5849L4.78233 18.9212C4.47686 18.8132 4.14147 18.9734 4.0335 19.279C3.92553 19.5845 4.08569 19.9198 4.39124 20.0278L6.44539 20.7539C6.35515 21.3999 6.30906 22.0519 6.30906 22.7058C6.30906 24.8331 6.79594 26.932 7.71602 28.8698L4.39132 30.045C4.08577 30.153 3.92561 30.4883 4.03358 30.7938C4.11874 31.0348 4.34507 31.1853 4.58686 31.1853C4.65171 31.1853 4.7178 31.1745 4.78241 31.1516L8.26688 29.92C8.82001 30.882 9.48407 31.7955 10.2534 32.6416C10.3692 32.7689 10.5283 32.8336 10.6878 32.8336C10.8288 32.8336 10.97 32.7831 11.0825 32.681C11.3223 32.463 11.3399 32.0917 11.1219 31.8519C10.4532 31.1167 9.87321 30.3386 9.3847 29.525L15.9621 27.2002C16.2677 27.0923 16.4279 26.757 16.3199 26.4514C16.2119 26.1458 15.8765 25.9856 15.571 26.0937L8.8179 28.4806C7.93813 26.6784 7.48281 24.7289 7.48281 22.7059C7.48281 22.1868 7.51625 21.6689 7.57836 21.1545L15.571 23.9795C15.6356 24.0023 15.7017 24.0133 15.7665 24.0133C16.0083 24.0133 16.2346 23.8627 16.3198 23.6218C16.4278 23.3162 16.2676 22.9809 15.9621 22.873L7.77352 19.9786C8.0918 18.495 8.6679 17.0589 9.48399 15.7336C9.7936 15.2307 9.94595 14.6563 9.92462 14.0724L9.50782 2.71248L20.2175 7.96945C20.6967 8.20469 21.2362 8.29492 21.7787 8.23008C23.2441 8.05508 24.7555 8.05508 26.2211 8.23008C26.7633 8.29453 27.3031 8.20461 27.7822 7.96945L38.4918 2.71248L38.3658 6.14835C38.354 6.47226 38.6068 6.74445 38.9307 6.7564C39.2551 6.76828 39.5269 6.51531 39.5387 6.19148L39.6672 2.69021C39.682 2.28756 39.4891 1.91607 39.1511 1.69685Z" fill="black"/>
<path d="M16.7808 8.60447L12.789 6.48985C12.4757 6.32407 12.0962 6.34071 11.7989 6.53368C11.5014 6.72665 11.3314 7.06634 11.3553 7.42009L11.6454 11.7245C11.6454 11.7245 11.6454 11.7245 11.6454 11.7246C11.6704 12.0943 11.8979 12.414 12.2391 12.5586C12.3632 12.6112 12.4933 12.637 12.6225 12.637C12.849 12.637 13.0722 12.5577 13.2529 12.4052C14.6205 11.2503 15.8559 10.672 16.6515 10.3902C17.0163 10.2609 17.2704 9.92776 17.2987 9.54135C17.3272 9.15393 17.1239 8.78635 16.7808 8.60447ZM12.7908 11.2657L12.55 7.6915L15.8497 9.43963C15.0435 9.76721 13.9651 10.3261 12.7908 11.2657Z" fill="black"/>
<path d="M36.2011 6.5338C35.9035 6.34075 35.5241 6.32411 35.2109 6.48997L31.2191 8.60467C30.876 8.78639 30.6727 9.15405 30.7012 9.54139C30.7295 9.92772 30.9836 10.2608 31.3485 10.3902C32.144 10.6721 33.3794 11.2503 34.7471 12.4052C34.9279 12.5577 35.1509 12.637 35.3775 12.637C35.5066 12.637 35.6368 12.6112 35.7609 12.5587C36.1021 12.414 36.3296 12.0944 36.3546 11.7246C36.3546 11.7245 36.3546 11.7245 36.3546 11.7245L36.6447 7.42013C36.6685 7.06646 36.4986 6.72677 36.2011 6.5338ZM35.209 11.2657C34.0347 10.3262 32.9563 9.76725 32.15 9.43967L35.4499 7.69154L35.209 11.2657Z" fill="black"/>
</g>
<defs>
<filter id="filter0_d" x="0" y="0" width="48" height="48" filterUnits="userSpaceOnUse" color-interpolation-filters="sRGB">
<feFlood flood-opacity="0" result="BackgroundImageFix"/>
<feColorMatrix in="SourceAlpha" type="matrix" values="0 0 0 0 0 0 0 0 0 0 0 0 0 0 0 0 0 0 127 0"/>
<feOffset dy="4"/>
<feGaussianBlur stdDeviation="2"/>
<feColorMatrix type="matrix" values="0 0 0 0 0 0 0 0 0 0 0 0 0 0 0 0 0 0 0.25 0"/>
<feBlend mode="normal" in2="BackgroundImageFix" result="effect1_dropShadow"/>
<feBlend mode="normal" in="SourceGraphic" in2="effect1_dropShadow" result="shape"/>
</filter>
<clipPath id="clip0">
<rect width="40" height="40" fill="white" transform="translate(4)"/>
</clipPath>
</defs>
</svg>
