<svg width="40" height="40" viewBox="0 0 40 40" fill="none" xmlns="http://www.w3.org/2000/svg">
<g clip-path="url(#clip0)">
<path d="M14.7575 20.344C15.4466 20.344 16.0052 19.7854 16.0052 19.0963C16.0052 18.4072 15.4466 17.8486 14.7575 17.8486C14.0685 17.8486 13.5099 18.4072 13.5099 19.0963C13.5099 19.7854 14.0685 20.344 14.7575 20.344Z" fill="white"/>
<path d="M25.2428 20.344C25.9318 20.344 26.4904 19.7854 26.4904 19.0963C26.4904 18.4072 25.9318 17.8486 25.2428 17.8486C24.5537 17.8486 23.9951 18.4072 23.9951 19.0963C23.9951 19.7854 24.5537 20.344 25.2428 20.344Z" fill="white"/>
<path d="M23.237 29.6138C22.4113 29.6138 21.7671 29.3868 21.3222 28.9391C20.8289 28.4427 20.6667 27.7694 20.6133 27.3775C21.6905 27.1025 22.4812 26.1262 22.8724 25.5376C22.9056 25.4877 22.9414 25.4358 22.9784 25.3823C23.237 25.009 23.5909 24.4976 23.5647 23.9083C23.5381 23.3133 23.1009 22.9415 22.2651 22.8032C21.5581 22.6864 20.876 22.625 20.2346 22.6212H19.762C19.1241 22.625 18.442 22.6863 17.735 22.8032C16.8991 22.9415 16.4618 23.3133 16.4354 23.9084C16.4091 24.4976 16.7631 25.0089 17.0216 25.3823C17.0587 25.4359 17.0947 25.4878 17.1277 25.5376C17.6966 26.3936 18.4633 27.0265 19.2865 27.3199C19.3209 27.3321 19.3556 27.3415 19.3902 27.3521C19.3405 27.7373 19.1829 28.4263 18.6844 28.9326C18.2393 29.3846 17.5928 29.6139 16.763 29.6139C16.4388 29.6139 16.1761 29.8766 16.1761 30.2008C16.1761 30.525 16.4387 30.7877 16.763 30.7877C17.9187 30.7877 18.8466 30.4406 19.5206 29.7562C19.7133 29.5605 19.8706 29.3502 20 29.1365C20.1294 29.3502 20.2867 29.5606 20.4794 29.7562C21.1534 30.4406 22.0813 30.7877 23.237 30.7877C23.5613 30.7877 23.8239 30.525 23.8239 30.2008C23.8239 29.8765 23.5613 29.6138 23.237 29.6138ZM20.1809 26.2686C20.1808 26.2686 20.1807 26.2686 20.1807 26.2687C20.01 26.2912 19.8463 26.2735 19.6803 26.2144C19.0942 26.0055 18.5349 25.5344 18.1052 24.8879C18.0682 24.8322 18.0281 24.7743 17.9866 24.7143C17.8429 24.5068 17.6524 24.2316 17.6145 24.0363C17.6658 24.016 17.7589 23.989 17.9265 23.9612C18.5728 23.8543 19.1927 23.7984 19.7655 23.795H20.2311C20.8073 23.7984 21.4273 23.8543 22.0736 23.9612C22.2413 23.989 22.3343 24.0159 22.3856 24.0363C22.3475 24.2317 22.1571 24.5067 22.0134 24.7143C21.972 24.7743 21.9318 24.8322 21.8949 24.8879C21.3683 25.6802 20.7276 26.1964 20.1809 26.2686Z" fill="white"/>
<path d="M39.6087 30.0451L36.2941 28.8736C37.2096 26.9489 37.6909 24.861 37.6909 22.706C37.6909 22.0521 37.6447 21.4002 37.5545 20.7541L39.6086 20.0281C39.9141 19.9201 40.0743 19.5848 39.9663 19.2792C39.8583 18.9737 39.5229 18.8134 39.2175 18.9215L37.3397 19.5852C36.9875 18.0241 36.3746 16.5139 35.5151 15.1181C35.3275 14.8135 35.2351 14.4669 35.2481 14.1146L35.3823 10.2999C35.3937 9.97598 35.1403 9.70418 34.8165 9.69277C34.8095 9.69246 34.8025 9.69238 34.7955 9.69238C34.481 9.69238 34.2205 9.94176 34.2094 10.2586L34.0752 14.0724C34.0538 14.6564 34.2062 15.2308 34.5158 15.7335C35.3319 17.0589 35.908 18.4949 36.2264 19.9785L28.0377 22.8727C27.7322 22.9807 27.572 23.316 27.68 23.6216C27.7651 23.8625 27.9915 24.0131 28.2333 24.0131C28.2981 24.0131 28.3642 24.0022 28.4288 23.9793L36.4215 21.1543C36.4837 21.6688 36.5171 22.1867 36.5171 22.7058C36.5171 24.7545 36.0368 26.7057 35.1721 28.477L28.4288 26.0935C28.1232 25.9855 27.788 26.1457 27.68 26.4513C27.572 26.7568 27.7322 27.0921 28.0377 27.2001L34.6052 29.5214C31.8315 34.1515 26.3258 37.3134 20 37.3134C16.4029 37.3134 12.9838 36.3083 10.1121 34.4068C9.84187 34.2278 9.47765 34.3018 9.29882 34.572C9.11984 34.8422 9.19382 35.2064 9.46406 35.3853C12.5285 37.4146 16.1718 38.4872 20 38.4872C24.7125 38.4872 29.1461 36.8541 32.4841 33.8887C33.8143 32.707 34.9067 31.3697 35.7421 29.9232L39.2175 31.1515C39.2821 31.1743 39.3482 31.1853 39.4131 31.1853C39.6548 31.1853 39.8812 31.0347 39.9664 30.7938C40.0744 30.4884 39.9143 30.1531 39.6087 30.0451Z" fill="white"/>
<path d="M35.1511 1.69685C34.8129 1.47747 34.3952 1.45255 34.0335 1.63013L23.2652 6.91586C22.9898 7.05109 22.6765 7.10265 22.3604 7.06461C20.8028 6.87859 19.197 6.87859 17.6396 7.06461C17.3232 7.10218 17.0101 7.05093 16.7347 6.91586L5.96634 1.63005C5.60478 1.45247 5.18673 1.4774 4.84876 1.69677C4.51079 1.91607 4.31782 2.28748 4.33258 2.69014L4.75165 14.1153C4.76454 14.4666 4.67212 14.8134 4.48454 15.118C3.62516 16.5137 3.01226 18.0237 2.66008 19.5849L0.782334 18.9212C0.476864 18.8132 0.141472 18.9734 0.0335029 19.279C-0.0744663 19.5845 0.0856906 19.9198 0.391239 20.0278L2.44539 20.7539C2.35515 21.3999 2.30906 22.0519 2.30906 22.7058C2.30906 24.8331 2.79594 26.932 3.71602 28.8698L0.391317 30.045C0.0857687 30.153 -0.0743882 30.4883 0.033581 30.7938C0.118738 31.0348 0.345067 31.1853 0.586865 31.1853C0.651709 31.1853 0.717803 31.1745 0.782412 31.1516L4.26688 29.92C4.82001 30.882 5.48407 31.7955 6.25345 32.6416C6.36915 32.7689 6.5283 32.8336 6.68783 32.8336C6.82876 32.8336 6.97002 32.7831 7.08252 32.681C7.32228 32.463 7.33994 32.0917 7.12189 31.8519C6.45322 31.1167 5.87321 30.3386 5.3847 29.525L11.9621 27.2002C12.2677 27.0923 12.4279 26.757 12.3199 26.4514C12.2119 26.1458 11.8765 25.9856 11.571 26.0937L4.8179 28.4806C3.93813 26.6784 3.48281 24.7289 3.48281 22.7059C3.48281 22.1868 3.51625 21.6689 3.57836 21.1545L11.571 23.9795C11.6356 24.0023 11.7017 24.0133 11.7665 24.0133C12.0083 24.0133 12.2346 23.8627 12.3198 23.6218C12.4278 23.3162 12.2676 22.9809 11.9621 22.873L3.77352 19.9786C4.0918 18.495 4.6679 17.0589 5.48399 15.7336C5.7936 15.2307 5.94595 14.6563 5.92462 14.0724L5.50782 2.71248L16.2175 7.96945C16.6967 8.20469 17.2362 8.29492 17.7787 8.23008C19.2441 8.05508 20.7555 8.05508 22.2211 8.23008C22.7633 8.29453 23.3031 8.20461 23.7822 7.96945L34.4918 2.71248L34.3658 6.14835C34.354 6.47226 34.6068 6.74445 34.9307 6.7564C35.2551 6.76828 35.5269 6.51531 35.5387 6.19148L35.6672 2.69021C35.682 2.28756 35.4891 1.91607 35.1511 1.69685Z" fill="white"/>
<path d="M12.7808 8.60453L8.789 6.48992C8.47571 6.32413 8.09618 6.34077 7.79884 6.53374C7.50133 6.72671 7.33141 7.0664 7.35524 7.42015L7.6454 11.7245C7.6454 11.7245 7.6454 11.7245 7.6454 11.7246C7.67032 12.0944 7.89782 12.4141 8.23907 12.5587C8.36321 12.6113 8.49329 12.637 8.62243 12.637C8.849 12.637 9.07212 12.5578 9.25283 12.4053C10.6205 11.2504 11.8559 10.672 12.6514 10.3902C13.0163 10.2609 13.2703 9.92782 13.2987 9.54141C13.3271 9.15399 13.1239 8.78641 12.7808 8.60453ZM8.79079 11.2657L8.54993 7.69156L11.8497 9.43969C11.0435 9.76727 9.9651 10.3262 8.79079 11.2657Z" fill="white"/>
<path d="M32.2011 6.5338C31.9035 6.34075 31.5241 6.32411 31.2109 6.48997L27.2191 8.60467C26.876 8.78639 26.6727 9.15405 26.7012 9.54139C26.7295 9.92772 26.9836 10.2608 27.3485 10.3902C28.144 10.6721 29.3794 11.2503 30.7471 12.4052C30.9279 12.5577 31.1509 12.637 31.3775 12.637C31.5066 12.637 31.6368 12.6112 31.7609 12.5587C32.1021 12.414 32.3296 12.0944 32.3546 11.7246C32.3546 11.7245 32.3546 11.7245 32.3546 11.7245L32.6447 7.42013C32.6685 7.06646 32.4986 6.72677 32.2011 6.5338ZM31.209 11.2657C30.0347 10.3262 28.9563 9.76725 28.15 9.43967L31.4499 7.69154L31.209 11.2657Z" fill="white"/>
</g>
<defs>
<clipPath id="clip0">
<rect width="40" height="40" fill="white"/>
</clipPath>
</defs>
</svg>
